<svg xmlns="http://www.w3.org/2000/svg" xmlns:xlink="http://www.w3.org/1999/xlink" width="500" zoomAndPan="magnify" viewBox="0 0 375 374.999991" height="500" preserveAspectRatio="xMidYMid meet" version="1.0"><defs><clipPath id="f983f8a154"><path d="M 187.5 0 C 83.945312 0 0 83.945312 0 187.5 C 0 291.054688 83.945312 375 187.5 375 C 291.054688 375 375 291.054688 375 187.5 C 375 83.945312 291.054688 0 187.5 0 Z M 187.5 0 " clip-rule="nonzero"/></clipPath><clipPath id="7f957a55cf"><path d="M 69.507812 69.859375 L 306 69.859375 L 306 305.355469 L 69.507812 305.355469 Z M 69.507812 69.859375 " clip-rule="nonzero"/></clipPath></defs><g clip-path="url(#f983f8a154)"><rect x="-37.5" width="450" fill="#2e2f33" y="-37.499999" height="449.999989" fill-opacity="1"/></g><path fill="#161616" d="M 283.445312 255.429688 C 283.445312 255.429688 291.453125 274.378906 305.0625 273.8125 C 318.667969 273.195312 323.957031 268.316406 323.957031 268.316406 L 319.800781 299.847656 C 319.800781 299.847656 279.285156 300.976562 276.511719 264.3125 C 276 257.328125 283.445312 255.429688 283.445312 255.429688 Z M 283.445312 255.429688 " fill-opacity="1" fill-rule="nonzero"/><path fill="#161616" d="M 268.246094 187.496094 C 268.246094 188.820312 268.214844 190.140625 268.148438 191.460938 C 268.082031 192.78125 267.984375 194.101562 267.855469 195.417969 C 267.726562 196.734375 267.566406 198.046875 267.371094 199.355469 C 267.175781 200.664062 266.949219 201.964844 266.691406 203.265625 C 266.433594 204.5625 266.144531 205.851562 265.824219 207.132812 C 265.5 208.417969 265.148438 209.691406 264.765625 210.957031 C 264.382812 212.222656 263.964844 213.480469 263.519531 214.722656 C 263.074219 215.96875 262.597656 217.203125 262.09375 218.425781 C 261.585938 219.648438 261.050781 220.855469 260.484375 222.050781 C 259.921875 223.246094 259.324219 224.429688 258.703125 225.59375 C 258.078125 226.761719 257.425781 227.914062 256.746094 229.046875 C 256.066406 230.179688 255.359375 231.296875 254.625 232.398438 C 253.890625 233.5 253.128906 234.578125 252.339844 235.640625 C 251.550781 236.703125 250.738281 237.746094 249.898438 238.769531 C 249.058594 239.792969 248.195312 240.792969 247.308594 241.773438 C 246.421875 242.753906 245.507812 243.710938 244.574219 244.644531 C 243.636719 245.582031 242.679688 246.492188 241.699219 247.382812 C 240.71875 248.269531 239.71875 249.132812 238.695312 249.972656 C 237.671875 250.8125 236.632812 251.625 235.570312 252.414062 C 234.507812 253.199219 233.425781 253.960938 232.324219 254.695312 C 231.226562 255.433594 230.109375 256.140625 228.972656 256.820312 C 227.839844 257.5 226.6875 258.152344 225.523438 258.773438 C 224.355469 259.398438 223.175781 259.992188 221.980469 260.558594 C 220.785156 261.125 219.574219 261.660156 218.351562 262.164062 C 217.128906 262.671875 215.898438 263.148438 214.652344 263.59375 C 213.40625 264.039062 212.152344 264.453125 210.882812 264.839844 C 209.617188 265.222656 208.34375 265.574219 207.0625 265.894531 C 205.777344 266.21875 204.488281 266.507812 203.191406 266.765625 C 201.894531 267.023438 200.589844 267.25 199.28125 267.441406 C 197.972656 267.636719 196.660156 267.800781 195.34375 267.929688 C 194.027344 268.058594 192.710938 268.15625 191.390625 268.222656 C 190.066406 268.285156 188.746094 268.316406 187.421875 268.316406 C 186.101562 268.316406 184.777344 268.285156 183.457031 268.222656 C 182.136719 268.15625 180.816406 268.058594 179.5 267.929688 C 178.183594 267.800781 176.871094 267.636719 175.5625 267.441406 C 174.257812 267.25 172.953125 267.023438 171.65625 266.765625 C 170.359375 266.507812 169.066406 266.21875 167.785156 265.894531 C 166.503906 265.574219 165.226562 265.222656 163.960938 264.839844 C 162.695312 264.453125 161.441406 264.039062 160.195312 263.59375 C 158.949219 263.148438 157.714844 262.671875 156.492188 262.164062 C 155.273438 261.660156 154.0625 261.125 152.867188 260.558594 C 151.671875 259.992188 150.492188 259.398438 149.324219 258.773438 C 148.15625 258.152344 147.007812 257.5 145.871094 256.820312 C 144.738281 256.140625 143.621094 255.433594 142.519531 254.695312 C 141.421875 253.960938 140.339844 253.199219 139.277344 252.414062 C 138.214844 251.625 137.171875 250.8125 136.152344 249.972656 C 135.128906 249.132812 134.125 248.269531 133.148438 247.382812 C 132.167969 246.492188 131.207031 245.582031 130.273438 244.644531 C 129.339844 243.710938 128.425781 242.753906 127.539062 241.773438 C 126.648438 240.792969 125.785156 239.792969 124.945312 238.769531 C 124.109375 237.746094 123.292969 236.703125 122.507812 235.640625 C 121.71875 234.578125 120.957031 233.5 120.222656 232.398438 C 119.488281 231.296875 118.78125 230.179688 118.101562 229.046875 C 117.421875 227.914062 116.769531 226.761719 116.144531 225.59375 C 115.519531 224.429688 114.925781 223.246094 114.359375 222.050781 C 113.796875 220.855469 113.257812 219.648438 112.753906 218.425781 C 112.246094 217.203125 111.769531 215.96875 111.324219 214.722656 C 110.878906 213.480469 110.464844 212.222656 110.082031 210.957031 C 109.699219 209.691406 109.34375 208.417969 109.023438 207.132812 C 108.703125 205.851562 108.414062 204.5625 108.152344 203.265625 C 107.894531 201.964844 107.671875 200.664062 107.476562 199.355469 C 107.28125 198.046875 107.121094 196.734375 106.992188 195.417969 C 106.859375 194.101562 106.761719 192.78125 106.699219 191.460938 C 106.632812 190.140625 106.601562 188.820312 106.601562 187.496094 C 106.601562 186.171875 106.632812 184.851562 106.699219 183.53125 C 106.761719 182.210938 106.859375 180.890625 106.992188 179.574219 C 107.121094 178.257812 107.28125 176.945312 107.476562 175.636719 C 107.671875 174.328125 107.894531 173.027344 108.152344 171.726562 C 108.414062 170.429688 108.703125 169.140625 109.023438 167.859375 C 109.34375 166.574219 109.699219 165.300781 110.082031 164.035156 C 110.464844 162.769531 110.878906 161.511719 111.324219 160.269531 C 111.769531 159.023438 112.246094 157.789062 112.753906 156.566406 C 113.257812 155.34375 113.796875 154.136719 114.359375 152.941406 C 114.925781 151.746094 115.519531 150.5625 116.144531 149.398438 C 116.769531 148.230469 117.421875 147.078125 118.101562 145.945312 C 118.78125 144.8125 119.488281 143.695312 120.222656 142.59375 C 120.957031 141.492188 121.71875 140.414062 122.507812 139.351562 C 123.292969 138.289062 124.109375 137.246094 124.945312 136.222656 C 125.785156 135.199219 126.648438 134.199219 127.539062 133.21875 C 128.425781 132.238281 129.339844 131.28125 130.273438 130.347656 C 131.207031 129.410156 132.167969 128.5 133.148438 127.609375 C 134.125 126.722656 135.128906 125.859375 136.152344 125.019531 C 137.171875 124.179688 138.214844 123.367188 139.277344 122.578125 C 140.339844 121.792969 141.421875 121.03125 142.519531 120.296875 C 143.621094 119.558594 144.738281 118.851562 145.871094 118.171875 C 147.007812 117.492188 148.15625 116.839844 149.324219 116.21875 C 150.492188 115.59375 151.671875 115 152.867188 114.433594 C 154.0625 113.867188 155.273438 113.332031 156.492188 112.828125 C 157.714844 112.320312 158.949219 111.84375 160.195312 111.398438 C 161.441406 110.953125 162.695312 110.539062 163.960938 110.152344 C 165.226562 109.769531 166.503906 109.417969 167.785156 109.097656 C 169.066406 108.773438 170.359375 108.484375 171.65625 108.226562 C 172.953125 107.96875 174.257812 107.742188 175.5625 107.550781 C 176.871094 107.355469 178.183594 107.191406 179.5 107.0625 C 180.816406 106.933594 182.136719 106.835938 183.457031 106.769531 C 184.777344 106.707031 186.101562 106.675781 187.421875 106.675781 C 188.746094 106.675781 190.066406 106.707031 191.390625 106.769531 C 192.710938 106.835938 194.027344 106.933594 195.34375 107.0625 C 196.660156 107.191406 197.972656 107.355469 199.28125 107.550781 C 200.589844 107.742188 201.894531 107.96875 203.191406 108.226562 C 204.488281 108.484375 205.777344 108.773438 207.0625 109.097656 C 208.34375 109.417969 209.617188 109.769531 210.882812 110.152344 C 212.152344 110.539062 213.40625 110.953125 214.652344 111.398438 C 215.898438 111.84375 217.128906 112.320312 218.351562 112.828125 C 219.574219 113.332031 220.785156 113.867188 221.980469 114.433594 C 223.175781 115 224.355469 115.59375 225.523438 116.21875 C 226.6875 116.839844 227.839844 117.492188 228.972656 118.171875 C 230.109375 118.851562 231.226562 119.558594 232.324219 120.296875 C 233.425781 121.03125 234.507812 121.792969 235.570312 122.578125 C 236.632812 123.367188 237.671875 124.179688 238.695312 125.019531 C 239.71875 125.859375 240.71875 126.722656 241.699219 127.609375 C 242.679688 128.5 243.636719 129.410156 244.574219 130.347656 C 245.507812 131.28125 246.421875 132.238281 247.308594 133.21875 C 248.195312 134.199219 249.058594 135.199219 249.898438 136.222656 C 250.738281 137.246094 251.550781 138.289062 252.339844 139.351562 C 253.128906 140.414062 253.890625 141.492188 254.625 142.59375 C 255.359375 143.695312 256.066406 144.8125 256.746094 145.945312 C 257.425781 147.078125 258.078125 148.230469 258.703125 149.398438 C 259.324219 150.5625 259.921875 151.746094 260.484375 152.941406 C 261.050781 154.136719 261.585938 155.34375 262.09375 156.566406 C 262.597656 157.789062 263.074219 159.023438 263.519531 160.269531 C 263.964844 161.511719 264.382812 162.769531 264.765625 164.035156 C 265.148438 165.300781 265.5 166.574219 265.824219 167.859375 C 266.144531 169.140625 266.433594 170.429688 266.691406 171.726562 C 266.949219 173.027344 267.175781 174.328125 267.371094 175.636719 C 267.566406 176.945312 267.726562 178.257812 267.855469 179.574219 C 267.984375 180.890625 268.082031 182.210938 268.148438 183.53125 C 268.214844 184.851562 268.246094 186.171875 268.246094 187.496094 Z M 268.246094 187.496094 " fill-opacity="1" fill-rule="nonzero"/><g clip-path="url(#7f957a55cf)"><path fill="#33b85a" d="M 187.421875 69.859375 C 122.46875 69.859375 69.785156 122.539062 69.785156 187.496094 C 69.785156 252.453125 122.46875 305.132812 187.421875 305.132812 C 252.378906 305.132812 305.0625 252.453125 305.0625 187.496094 C 305.0625 122.539062 252.378906 69.859375 187.421875 69.859375 Z M 187.421875 90.757812 C 205.242188 90.757812 219.617188 105.183594 219.617188 122.953125 C 219.617188 140.71875 205.191406 155.148438 187.421875 155.148438 C 169.65625 155.148438 155.226562 140.71875 155.226562 122.953125 C 155.226562 105.183594 169.605469 90.757812 187.421875 90.757812 Z M 208.425781 183.746094 C 208.425781 185.957031 206.679688 187.703125 204.472656 187.703125 C 202.261719 187.703125 200.515625 185.957031 200.515625 183.746094 C 200.515625 181.539062 202.261719 179.792969 204.472656 179.792969 C 206.679688 179.792969 208.425781 181.539062 208.425781 183.746094 Z M 191.378906 166.648438 C 191.378906 168.855469 189.632812 170.601562 187.421875 170.601562 C 185.214844 170.601562 183.46875 168.855469 183.46875 166.648438 C 183.46875 164.441406 185.214844 162.695312 187.421875 162.695312 C 189.578125 162.695312 191.378906 164.492188 191.378906 166.648438 Z M 174.277344 183.746094 C 174.277344 185.957031 172.53125 187.703125 170.324219 187.703125 C 168.117188 187.703125 166.371094 185.957031 166.371094 183.746094 C 166.371094 181.539062 168.117188 179.792969 170.324219 179.792969 C 172.53125 179.792969 174.277344 181.539062 174.277344 183.746094 Z M 94.074219 169.371094 C 94.074219 151.605469 108.5 137.175781 126.269531 137.175781 C 144.035156 137.175781 158.464844 151.605469 158.464844 169.371094 C 158.464844 187.136719 144.035156 201.566406 126.269531 201.566406 C 108.5 201.566406 94.074219 187.1875 94.074219 169.371094 Z M 148.707031 271.449219 C 130.941406 271.449219 116.511719 257.023438 116.511719 239.253906 C 116.511719 221.488281 130.941406 207.058594 148.707031 207.058594 C 166.523438 207.058594 180.902344 221.488281 180.902344 239.253906 C 180.902344 257.023438 166.472656 271.449219 148.707031 271.449219 Z M 178.4375 183.746094 C 178.4375 178.765625 182.441406 174.761719 187.421875 174.761719 C 192.402344 174.761719 196.410156 178.765625 196.410156 183.746094 C 196.410156 188.726562 192.402344 192.734375 187.421875 192.734375 C 182.441406 192.734375 178.4375 188.675781 178.4375 183.746094 Z M 187.421875 204.75 C 185.214844 204.75 183.46875 203.003906 183.46875 200.796875 C 183.46875 198.585938 185.214844 196.839844 187.421875 196.839844 C 189.632812 196.839844 191.378906 198.585938 191.378906 200.796875 C 191.378906 203.003906 189.578125 204.75 187.421875 204.75 Z M 225.523438 271.449219 C 207.757812 271.449219 193.328125 257.023438 193.328125 239.253906 C 193.328125 221.488281 207.757812 207.058594 225.523438 207.058594 C 243.339844 207.058594 257.71875 221.488281 257.71875 239.253906 C 257.769531 257.023438 243.339844 271.449219 225.523438 271.449219 Z M 248.527344 201.617188 C 230.761719 201.617188 216.332031 187.1875 216.332031 169.421875 C 216.332031 151.65625 230.761719 137.175781 248.527344 137.175781 C 266.34375 137.175781 280.722656 151.605469 280.722656 169.371094 C 280.722656 187.136719 266.34375 201.617188 248.527344 201.617188 Z M 248.527344 201.617188 " fill-opacity="1" fill-rule="nonzero"/></g><path fill="#2e2f33" d="M 188.195312 295.789062 C 128.476562 295.789062 79.847656 247.214844 79.847656 187.445312 C 79.847656 127.726562 128.425781 79.101562 188.195312 79.101562 C 247.910156 79.101562 296.539062 127.675781 296.539062 187.445312 C 296.488281 247.214844 247.910156 295.789062 188.195312 295.789062 Z M 188.195312 84.285156 C 131.300781 84.285156 84.984375 130.601562 84.984375 187.496094 C 84.984375 244.390625 131.300781 290.707031 188.195312 290.707031 C 245.085938 290.707031 291.402344 244.390625 291.402344 187.496094 C 291.351562 130.601562 245.085938 84.285156 188.195312 84.285156 Z M 188.195312 84.285156 " fill-opacity="1" fill-rule="nonzero"/></svg>